# xmcd CD database file
#
# Track frame offsets:
#	150
#	22838
#	38063
#	56232
#	70089
#	84996
#	105575
#	122863
#	152226
#	176864
#	205102
#	229177
#	253815
#	274965
#	301215
#	322140
#
# Disc length: 4628 seconds
#
# Revision: 0
# Processed by: cddbd v1.5.2PL0 Copyright (c) Steve Scherf et al.
# Submitted via: CDex 1.70beta2
#
DISCID=e1121210
DTITLE=Junior Mance Trio - Junior's Blues - Happy Tieme - Big Chief! [CD1)
DYEAR=1900
DGENRE=Jazz
TTITLE0=Down The Line
TTITLE1=Creole Love Call
TTITLE2=Rainy Mornin' Bbues
TTITLE3=Yancey Special
TTITLE4=Gravey Waltz
TTITLE5=Cracklin'
TTITLE6=In The Evening
TTITLE7=Blue Monk
TTITLE8=The Jumpin' Blues
TTITLE9=Happy Time
TTITLE10=Jitterbug Waltz
TTITLE11=Out South
TTITLE12=Tin Tin Deo
TTITLE13=For Dancers Only
TTITLE14=Taggie's Tune
TTITLE15=AzureTe
EXTD=
EXTT0=
EXTT1=
EXTT2=
EXTT3=
EXTT4=
EXTT5=
EXTT6=
EXTT7=
EXTT8=
EXTT9=
EXTT10=
EXTT11=
EXTT12=
EXTT13=
EXTT14=
EXTT15=
PLAYORDER=
